<?xml version="1.0" encoding="utf-8"?>
<!-- Generator: Adobe Illustrator 25.2.3, SVG Export Plug-In . SVG Version: 6.00 Build 0)  -->
<svg version="1.1" id="Layer_1" xmlns:serif="http://www.serif.com/"
	 xmlns="http://www.w3.org/2000/svg" xmlns:xlink="http://www.w3.org/1999/xlink" x="0px" y="0px" viewBox="0 0 500 500"
	 style="enable-background:new 0 0 500 500;" xml:space="preserve">
<style type="text/css">
	.st0{fill:#FFFFFF;}
	.st1{fill-rule:evenodd;clip-rule:evenodd;fill:#FFFFFF;}
</style>
<g transform="matrix(1,0,0,1,0.546724,0)">
	<g transform="matrix(3.9491,0,0,3.9491,1.61235,0)">
		<path class="st0" d="M38.09,53.22l24.54-24.54l24.55,24.55l14.28-14.28L62.63,0.13L23.82,38.94L38.09,53.22z"/>
		<g transform="matrix(0.7071,0.7071,-0.7071,0.7071,48.7933,8.8106)">
			
				<rect x="3.64" y="53.23" transform="matrix(2.535182e-06 1 -1 2.535182e-06 77.0655 49.5847)" class="st1" width="20.19" height="20.19"/>
		</g>
		<path class="st0" d="M38.09,73.39l24.54,24.54l24.55-24.55l14.29,14.27l-0.01,0.01l-38.83,38.83L23.81,87.67l-0.02-0.02
			L38.09,73.39z"/>
		<g transform="matrix(-0.7071,0.7071,-0.7071,-0.7071,235.546,29.0503)">
			<rect x="101.82" y="53.37" class="st1" width="20.19" height="20.19"/>
		</g>
		<path class="st0" d="M77.12,63.3L77.12,63.3L62.63,48.81L51.93,59.52h0l-1.23,1.23l-2.56,2.56l0.02,0.02L62.63,77.8l14.49-14.49
			l0.01-0.01L77.12,63.3z"/>
	</g>
</g>
</svg>
