<?xml version="1.0" encoding="utf-8"?>
<!-- Generator: Adobe Illustrator 25.2.3, SVG Export Plug-In . SVG Version: 6.00 Build 0)  -->
<svg version="1.1" id="Layer_1" xmlns:serif="http://www.serif.com/"
	 xmlns="http://www.w3.org/2000/svg" xmlns:xlink="http://www.w3.org/1999/xlink" x="0px" y="0px" viewBox="0 0 500 500"
	 style="enable-background:new 0 0 500 500;" xml:space="preserve">
<style type="text/css">
	.st0{fill-rule:evenodd;clip-rule:evenodd;fill:#FFFFFF;}
</style>
<g transform="matrix(1.55477,0,0,1.55477,-8.87631,-8.84858)">
	<g id="Layer_2_1_">
		<g id="Layer_1-2">
			<g>
				<path class="st0" d="M185.25,118.33l56.25-32.81v65.62L185.25,118.33z M241.5,258.95l-75,43.75l-75-43.75v-76.56l75,43.75
					l75-43.75V258.95z M91.5,85.52l56.25,32.81L91.5,151.14V85.52z M175.88,133.95l56.25,32.81l-56.25,32.81V133.95z M157.13,199.58
					l-56.25-32.81l56.25-32.81V199.58z M232.13,69.89l-65.63,37.5l-65.62-37.5l65.62-39.06L232.13,69.89z M72.75,63.64v204.69
					l93.75,53.12l93.75-53.12V63.64L166.5,10.52L72.75,63.64z"/>
			</g>
		</g>
	</g>
</g>
</svg>
