<svg id="Layer_1" data-name="Layer 1" xmlns="http://www.w3.org/2000/svg" xmlns:xlink="http://www.w3.org/1999/xlink" viewBox="0 0 1013.37 229.12"><defs><style>.cls-1{fill:none;}.cls-2{fill:#fff;}.cls-3{fill:#6e798f;}.cls-4{clip-path:url(#clip-path);}.cls-5{fill:#8247e5;}</style><clipPath id="clip-path" transform="translate(0 -367.13)"><rect class="cls-1" x="681.73" y="524.9" width="324.66" height="71.43" rx="35.71"/></clipPath></defs><path class="cls-2" d="M27.89,391.7q8.52-24.57,31.43-24.57H161.24L153.49,401H94.17v.12H65.51a4.09,4.09,0,0,0-2.49,1,5.38,5.38,0,0,0-1.82,2.66l-4.43,19.58h59.76l-7.31,33.87H49.13L36.3,515.42H0Z" transform="translate(0 -367.13)"/><path class="cls-2" d="M165.78,515q-27.89-3-36.85-24.18t4.65-52.51q23.23-38.73,72.15-36.08h51.68l-1.66,5.87h.11l-9.07,35.85-18.15,71.49H192.45Zm44.93-71.05h-.11l3-11.95H196.22q-14,.22-22.58,7.47a36.25,36.25,0,0,0-11.73,17.32q-5.86,26.67,18.48,26.34h20.14Z" transform="translate(0 -367.13)"/><path class="cls-2" d="M298.14,402h35.08l-7.31,32.31h-19.7a9.28,9.28,0,0,0-6.19,2.38,11.13,11.13,0,0,0-3.65,5.92l-18,72.82H242l20.14-82.11Q270,405.86,298.14,402Z" transform="translate(0 -367.13)"/><path class="cls-2" d="M476.3,515.42H439.56L458,440.5a6.38,6.38,0,0,0-1.27-5.09A5.75,5.75,0,0,0,452,433.2H436a35.2,35.2,0,0,1-1,7.3l-18.6,74.92H379.69l18.49-74.92a6.39,6.39,0,0,0-1.28-5.09,5.75,5.75,0,0,0-4.81-2.21H376.26l-19.58,82.22H319.83L346.94,402.1h33.42V402h25.12q21.57,0,29.32,21.91l5.09-21.8h12.62l.11-.11h12.73q15.15,0,24,11.56t5.53,26.95Z" transform="translate(0 -367.13)"/><path class="cls-2" d="M554,401.11a4,4,0,0,0-2.66.94,5.09,5.09,0,0,0-1.55,2.15.92.92,0,0,1-.11.34,3.25,3.25,0,0,0-.22.77c-.07.37-.18.91-.33,1.61s-.35,1.56-.61,2.6-.57,2.32-.94,3.87-.81,3.36-1.33,5.42a4.49,4.49,0,0,0,.89,3.65,3.86,3.86,0,0,0,3.21,1.55h53.89q14.94,0,23.85,11.57t5.47,26.61a1.19,1.19,0,0,1,0,.33c0,.15-.09.39-.17.72s-.18.82-.33,1.44-.35,1.42-.61,2.38-.55,2.16-.88,3.6-.74,3.11-1.22,5-1,4.13-1.66,6.64-1.31,5.35-2,8.52a32.72,32.72,0,0,1-11.51,17.71,31.27,31.27,0,0,1-20,6.86H486.71a2,2,0,0,1,.05-.39c0-.18.11-.48.22-.88s.26-1,.44-1.72.43-1.69.72-2.88.63-2.61,1-4.31.83-3.71,1.38-6,1.2-5,1.94-8,1.55-6.41,2.43-10.18h95.28a4.36,4.36,0,0,0,4.32-3.21,1.45,1.45,0,0,1,.06-.33c0-.14.09-.4.16-.77s.2-.9.39-1.61.4-1.56.66-2.6.57-2.32.94-3.87.78-3.36,1.22-5.42a3.56,3.56,0,0,0-.39-3.6,3.67,3.67,0,0,0-3.15-1.6H540q-14.94,0-23.9-11.35t-5.53-26.72a1.89,1.89,0,0,1,.05-.33c0-.15.11-.41.23-.78s.23-.87.38-1.49.33-1.42.56-2.38.51-2.14.88-3.54.78-3.08,1.22-5,1-4.18,1.6-6.69,1.35-5.35,2.16-8.52q9.4-24,31.43-24H658a2.91,2.91,0,0,1,0,.39c0,.18-.11.48-.23.88s-.25,1-.44,1.72-.44,1.68-.77,2.82-.7,2.55-1.11,4.21-.9,3.63-1.49,5.92-1.28,4.92-2,7.91-1.64,6.36-2.6,10.13H554Z" transform="translate(0 -367.13)"/><path class="cls-2" d="M661.94,426q18.87-20.69,47.09-24h62.19l-8.85,31.1H715.11v.11h-5q-23.68-.33-31.2,26.11a24.7,24.7,0,0,0,2.87,18.15q4.88,8.09,18.37,8.41h50.24l-7.74,29.55H684.79q-23.68-.1-33.7-11t-8.9-26.5Q643.07,446.7,661.94,426Z" transform="translate(0 -367.13)"/><path class="cls-2" d="M808.18,515q-27.88-3-36.85-24.18T776,438.29q23.24-38.73,72.15-36.08h51.68l-1.66,5.87h.11l-9.07,35.85L871,515.42H834.85Zm44.93-71.05H853L856,432H838.61q-13.93.22-22.57,7.47a36.18,36.18,0,0,0-11.73,17.32q-5.87,26.67,18.48,26.34h20.14Z" transform="translate(0 -367.13)"/><path class="cls-2" d="M994,515.42H957.24l18.48-74.92a6.85,6.85,0,0,0-1.32-5.09,5.62,5.62,0,0,0-4.76-2.21H942.3l-19.58,82.22H886L913,402.1h44.93V402H983q15,0,23.9,11.56t5.53,26.95Z" transform="translate(0 -367.13)"/><path class="cls-3" d="M405.9,576.13h4.36V567h6.41l1,0c.41,0,.78-.06,1.12-.11a7.18,7.18,0,0,0,5-2.81,10.11,10.11,0,0,0,0-11,7.14,7.14,0,0,0-5-2.82,7.45,7.45,0,0,0-1.1-.11c-.4,0-.73,0-1,0H405.9ZM410.26,563v-8.8h6.23a8.1,8.1,0,0,1,.81,0,5.28,5.28,0,0,1,.84.13,3.22,3.22,0,0,1,1.7,1,3.8,3.8,0,0,1,.88,1.56,5.3,5.3,0,0,1,0,3.4,3.8,3.8,0,0,1-.88,1.56,3.27,3.27,0,0,1-1.7,1,5.23,5.23,0,0,1-.84.15l-.81,0Zm31.6,13.73a12.57,12.57,0,0,0,6.7-1.71,11.18,11.18,0,0,0,4.29-4.78,17.53,17.53,0,0,0,0-14.19,11.07,11.07,0,0,0-4.29-4.76,13.91,13.91,0,0,0-13.4,0,11.2,11.2,0,0,0-4.29,4.76,17.64,17.64,0,0,0,0,14.19,11.31,11.31,0,0,0,4.29,4.78A12.62,12.62,0,0,0,441.86,576.68Zm0-4.11a7.12,7.12,0,0,1-5.9-2.63,10.84,10.84,0,0,1-2-6.84,13.37,13.37,0,0,1,.89-5,7.11,7.11,0,0,1,2.61-3.31,7.25,7.25,0,0,1,4.36-1.16,7.06,7.06,0,0,1,5.9,2.62,11,11,0,0,1,2,6.85,13,13,0,0,1-.88,5,7.11,7.11,0,0,1-2.63,3.32A7.56,7.56,0,0,1,441.86,572.57Zm22.31,3.56h4.31l5.32-18.54,5.33,18.54h4.31l7.6-26.07h-4.58l-5.18,18.83-5.19-18.83-4.58,0-5.18,18.79-5.2-18.83h-4.58Zm31.64,0h16.83V572H500.17v-7.37h10.3v-4.09h-10.3v-6.43h12.47v-4.09H495.81Zm23,0h4.36V567h6.19l4.42,9.1h4.94l-4.81-9.88a6.76,6.76,0,0,0,3.31-3,9.79,9.79,0,0,0,1.09-4.67,9.29,9.29,0,0,0-1.63-5.52,7.14,7.14,0,0,0-5-2.82,7.31,7.31,0,0,0-1.1-.11c-.4,0-.73,0-1,0H518.8ZM523.16,563v-8.8h6.23a8.1,8.1,0,0,1,.81,0,5.11,5.11,0,0,1,.84.13,3.22,3.22,0,0,1,1.7,1,3.94,3.94,0,0,1,.89,1.56,5.49,5.49,0,0,1,0,3.4,3.94,3.94,0,0,1-.89,1.56,3.27,3.27,0,0,1-1.7,1,5,5,0,0,1-.84.15l-.81,0Zm21.35,13.18h16.84V572H548.88v-7.37h10.3v-4.09h-10.3v-6.43h12.47v-4.09H544.51Zm23,0h8.31l1.29,0A18.39,18.39,0,0,0,579,576a10,10,0,0,0,5.25-2.19,11.32,11.32,0,0,0,3.24-4.6,17.32,17.32,0,0,0,0-12.2,11.26,11.26,0,0,0-3.24-4.6,9.67,9.67,0,0,0-5.25-2.19,16.16,16.16,0,0,0-1.88-.13l-1.29,0H567.5Zm4.44-4.11V554.17h3.87c.37,0,.82,0,1.38,0a7.42,7.42,0,0,1,1.5.16,5.24,5.24,0,0,1,3,1.61,8,8,0,0,1,1.72,3.13,13.14,13.14,0,0,1,.58,4,14,14,0,0,1-.54,3.91,8,8,0,0,1-1.72,3.17,5.32,5.32,0,0,1-3,1.64,10.37,10.37,0,0,1-1.5.17l-1.38,0Zm31.79,4.11h11.39A7.59,7.59,0,0,0,621,574a7.92,7.92,0,0,0,2-5.62,6.78,6.78,0,0,0-1-3.58,5.83,5.83,0,0,0-2.84-2.41,5,5,0,0,0,1.9-2,6.57,6.57,0,0,0,.7-3.11,7.51,7.51,0,0,0-.83-3.4,6.52,6.52,0,0,0-2.52-2.7,8,8,0,0,0-4.32-1.07H603.73Zm4.42-15.66v-6.34H614a3.23,3.23,0,0,1,2.43.91,3.13,3.13,0,0,1,.87,2.26,2.93,2.93,0,0,1-1,2.37,3.46,3.46,0,0,1-2.34.8Zm0,11.55v-7.48h6.55a3.59,3.59,0,0,1,3.86,3.72,3.5,3.5,0,0,1-1.14,2.75,4.12,4.12,0,0,1-2.85,1Zm25.47,4.11H638V565.45l8.85-15.39h-5.08l-6,10.39-6-10.39h-5.09l8.87,15.39Z" transform="translate(0 -367.13)"/><g class="cls-4"><path class="cls-2" d="M808.75,547.65a12,12,0,0,1,4.75,5.13,16.58,16.58,0,0,1,1.84,8,14.57,14.57,0,0,1-2,7.84,11.33,11.33,0,0,1-5.36,5,17.16,17.16,0,0,1-8,1.81,12.7,12.7,0,0,1-4.75-.9,9.85,9.85,0,0,1-4-2.41v15.67H782.4V546.45h7.66l.77,3.31a17.15,17.15,0,0,1,10.88-4.07A12.43,12.43,0,0,1,808.75,547.65Zm-4.9,18.69a6.91,6.91,0,0,0,2.3-5.43,7.92,7.92,0,0,0-2.15-5.57,6.74,6.74,0,0,0-5.21-2.11,8.47,8.47,0,0,0-4.44,1,7.09,7.09,0,0,0-2.91,3v6.78a6.43,6.43,0,0,0,2.45,3.16,7.88,7.88,0,0,0,4.29,1.21A8.19,8.19,0,0,0,803.85,566.34Z" transform="translate(0 -367.13)"/><path class="cls-2" d="M820.55,552.92a14.3,14.3,0,0,1,5.67-5.12,18.64,18.64,0,0,1,8.27-2,16.83,16.83,0,0,1,8.28,2,14.11,14.11,0,0,1,5.51,5.28,15.24,15.24,0,0,1,0,15.06,13.24,13.24,0,0,1-5.51,5.28,18.16,18.16,0,0,1-8.28,2,18.57,18.57,0,0,1-8.27-1.81,13.28,13.28,0,0,1-5.67-5.12,16.14,16.14,0,0,1,0-15.53Zm9,13.11a5.94,5.94,0,0,0,4.9,2.11A6.42,6.42,0,0,0,839.4,566a8,8,0,0,0,1.83-5.42,7.83,7.83,0,0,0-1.83-5.43,6.4,6.4,0,0,0-5.06-2.26,6.68,6.68,0,0,0-4.9,2.11,8.45,8.45,0,0,0-1.84,5.58A7.66,7.66,0,0,0,829.59,566Z" transform="translate(0 -367.13)"/><path class="cls-2" d="M864.68,525.05v49.58h-8.89V525.05Z" transform="translate(0 -367.13)"/><path class="cls-2" d="M901.14,547.2l-18.08,40.69h-8.58l6.75-14.62L868.35,547.2h10.12l7.35,16.27,7.36-16.27Z" transform="translate(0 -367.13)"/><path class="cls-2" d="M935.15,547.2v27.42a11.88,11.88,0,0,1-2.29,7.09,15.44,15.44,0,0,1-6.13,5,19.75,19.75,0,0,1-8.43,1.81,22.57,22.57,0,0,1-6-.76,27.28,27.28,0,0,1-4.14-1.8,28.21,28.21,0,0,1-3.83-2.87l5.21-6a14.91,14.91,0,0,0,3.83,2.72,11,11,0,0,0,4.75,1,9.63,9.63,0,0,0,5.67-1.66,5.42,5.42,0,0,0,2.3-4.67v-3.91a10,10,0,0,1-4,3.46,14.32,14.32,0,0,1-6.43,1.36,13.16,13.16,0,0,1-7.05-2,14.58,14.58,0,0,1-5.21-5.28,15.17,15.17,0,0,1-2-7.38,14.22,14.22,0,0,1,2-7.53,15.4,15.4,0,0,1,5.36-5.43,12.68,12.68,0,0,1,6.9-2,19.11,19.11,0,0,1,6.12.91,9.13,9.13,0,0,1,4.14,2.56l.92-2.11Zm-9,16.88v-6.79a6.57,6.57,0,0,0-2.92-3.16,9.67,9.67,0,0,0-4.75-1.21,8.12,8.12,0,0,0-5.51,2.11,6.91,6.91,0,0,0-2.3,5.43,7.66,7.66,0,0,0,2.3,5.57,7.57,7.57,0,0,0,5.51,2.27C922,568.14,924.58,566.79,926.12,564.08Z" transform="translate(0 -367.13)"/><path class="cls-2" d="M942.51,552.93a14.67,14.67,0,0,1,5.67-5.28,18.64,18.64,0,0,1,8.27-2,16.83,16.83,0,0,1,8.28,2,14.18,14.18,0,0,1,5.51,5.28,15.3,15.3,0,0,1,2,7.53,13.88,13.88,0,0,1-2,7.54,12.29,12.29,0,0,1-5.51,5.27,18,18,0,0,1-8.28,2,18.43,18.43,0,0,1-8.27-1.81,13.22,13.22,0,0,1-5.67-5.12,14.75,14.75,0,0,1-2-8A14.07,14.07,0,0,1,942.51,552.93ZM951.4,566a6,6,0,0,0,4.9,2.11,6.43,6.43,0,0,0,4.9-2.11,8,8,0,0,0,1.84-5.43,7.74,7.74,0,0,0-1.84-5.42,6.39,6.39,0,0,0-4.9-2.11,6.65,6.65,0,0,0-4.9,2.11,7.42,7.42,0,0,0-2,5.42A9.36,9.36,0,0,0,951.4,566Z" transform="translate(0 -367.13)"/><path class="cls-2" d="M1003.64,548.1a7.71,7.71,0,0,1,2.76,5.88v20.64h-9V557.29q-.23-4.06-4.14-4.06a5.55,5.55,0,0,0-4.9,2.86,13.43,13.43,0,0,0-1.84,7.23v11.3H977.6V547.2h8.12l.61,4.37a11.36,11.36,0,0,1,4.29-4.22,12.65,12.65,0,0,1,6.44-1.51A9.7,9.7,0,0,1,1003.64,548.1Z" transform="translate(0 -367.13)"/><path class="cls-5" d="M744.4,546.75a5.36,5.36,0,0,0-5.21,0l-12,6.93-8.12,4.52-12,6.94a5.36,5.36,0,0,1-5.21,0l-9.5-5.43a5.18,5.18,0,0,1-2.6-4.37v-10.7a4.88,4.88,0,0,1,2.6-4.37l9.35-5.27a5.31,5.31,0,0,1,5.21,0l9.34,5.27a5.2,5.2,0,0,1,2.61,4.37v6.93l8.12-4.67V540a4.87,4.87,0,0,0-2.61-4.37l-17.31-9.94a5.31,5.31,0,0,0-5.21,0l-17.62,9.94a4.88,4.88,0,0,0-2.6,4.37v20a4.87,4.87,0,0,0,2.6,4.37l17.62,10a5.36,5.36,0,0,0,5.21,0l12-6.78,8.12-4.67,12-6.79a5.36,5.36,0,0,1,5.21,0l9.35,5.28a5.18,5.18,0,0,1,2.6,4.37v10.7a4.88,4.88,0,0,1-2.6,4.37l-9.35,5.42a5.31,5.31,0,0,1-5.21,0L729.85,581a5.18,5.18,0,0,1-2.61-4.37v-6.93l-8.12,4.67v6.93a4.87,4.87,0,0,0,2.6,4.37l17.63,10a5.34,5.34,0,0,0,5.2,0l17.62-10a5.16,5.16,0,0,0,2.61-4.37v-20a4.86,4.86,0,0,0-2.61-4.37Z" transform="translate(0 -367.13)"/></g></svg>